<svg xmlns="http://www.w3.org/2000/svg" viewBox="0 0 48 48" width="48" height="48">
  <!-- Dhampir: 吸血鬼ハーフ -->
  <circle cx="24" cy="18" r="12" fill="#F5F5F5"/>
  <ellipse cx="24" cy="40" rx="12" ry="10" fill="#1C1C1C"/>
  <ellipse cx="19" cy="16" rx="2.5" ry="3" fill="#8B0000"/>
  <ellipse cx="29" cy="16" rx="2.5" ry="3" fill="#8B0000"/>
  <circle cx="19" cy="16" r="1" fill="#FF0000"/>
  <circle cx="29" cy="16" r="1" fill="#FF0000"/>
  <path d="M18 24 Q24 26 30 24" stroke="#666" stroke-width="1" fill="none"/>
  <polygon points="20,26 21,22 22,26" fill="#FFF"/>
  <polygon points="26,26 27,22 28,26" fill="#FFF"/>
  <path d="M12 4 Q16 8 18 6 Q24 10 30 6 Q32 8 36 4" fill="#1C1C1C"/>
  <path d="M8 20 Q10 16 12 20 Q10 24 8 20" fill="#1C1C1C"/>
  <path d="M40 20 Q38 16 36 20 Q38 24 40 20" fill="#1C1C1C"/>
</svg>
