<svg xmlns="http://www.w3.org/2000/svg" viewBox="0 0 48 48" width="48" height="48">
  <!-- Genasi (Fire): 炎、オレンジ肌 -->
  <circle cx="24" cy="20" r="12" fill="#FF6347"/>
  <ellipse cx="24" cy="42" rx="12" ry="10" fill="#B22222"/>
  <circle cx="19" cy="18" r="2.5" fill="#FF0"/>
  <circle cx="29" cy="18" r="2.5" fill="#FF0"/>
  <circle cx="19" cy="18" r="1" fill="#F00"/>
  <circle cx="29" cy="18" r="1" fill="#F00"/>
  <path d="M20 24 Q24 27 28 24" stroke="#8B0000" stroke-width="1.5" fill="none"/>
  <path d="M16 4 Q18 10 20 6 Q22 12 24 4 Q26 12 28 6 Q30 10 32 4" fill="#FF4500"/>
  <path d="M14 6 Q16 12 18 8 Q20 14 22 6" fill="#FFD700" opacity="0.8"/>
  <path d="M26 6 Q28 14 30 8 Q32 12 34 6" fill="#FFD700" opacity="0.8"/>
</svg>
