<svg xmlns="http://www.w3.org/2000/svg" viewBox="0 0 48 48" width="48" height="48">
  <ellipse cx="24" cy="36" rx="18" ry="10" fill="#1B5E20"/>
  <circle cx="24" cy="18" r="14" fill="#2E7D32"/>
  <polygon points="10,14 4,4 16,12" fill="#1B5E20"/>
  <polygon points="32,12 44,4 38,14" fill="#1B5E20"/>
  <polygon points="4,26 -4,18 0,30 -6,38 8,32" fill="#388E3C"/>
  <polygon points="44,26 52,18 48,30 54,38 40,32" fill="#388E3C"/>
  <circle cx="18" cy="16" r="4" fill="#FFEB3B"/>
  <circle cx="30" cy="16" r="4" fill="#FFEB3B"/>
  <circle cx="18" cy="16" r="2" fill="#E65100"/>
  <circle cx="30" cy="16" r="2" fill="#E65100"/>
  <path d="M20,26 L24,30 L28,26" fill="#FF5722"/>
  <line x1="20" y1="8" x2="22" y2="4" stroke="#1B5E20" stroke-width="2"/>
  <line x1="24" y1="6" x2="24" y2="2" stroke="#1B5E20" stroke-width="2"/>
  <line x1="28" y1="8" x2="26" y2="4" stroke="#1B5E20" stroke-width="2"/>
</svg>
