<svg xmlns="http://www.w3.org/2000/svg" viewBox="0 0 48 48" width="48" height="48">
  <path d="M24,44 Q12,36 14,24 Q16,12 24,4 Q32,12 34,24 Q36,36 24,44" fill="#FF5722"/>
  <path d="M24,40 Q16,34 18,24 Q20,14 24,8 Q28,14 30,24 Q32,34 24,40" fill="#FF9800"/>
  <path d="M24,36 Q18,32 20,24 Q22,16 24,12 Q26,16 28,24 Q30,32 24,36" fill="#FFEB3B"/>
  <circle cx="20" cy="22" r="3" fill="#fff"/>
  <circle cx="28" cy="22" r="3" fill="#fff"/>
  <circle cx="20" cy="22" r="1.5" fill="#E65100"/>
  <circle cx="28" cy="22" r="1.5" fill="#E65100"/>
</svg>
