<svg xmlns="http://www.w3.org/2000/svg" viewBox="0 0 48 48" width="48" height="48">
  <path d="M16,24 Q24,44 32,24 L32,44 L16,44 Z" fill="#4FC3F7"/>
  <circle cx="24" cy="18" r="10" fill="#E1F5FE"/>
  <polygon points="24,0 20,12 28,12" fill="#81D4FA"/>
  <polygon points="16,6 14,14 20,12" fill="#B3E5FC"/>
  <polygon points="32,6 28,12 34,14" fill="#B3E5FC"/>
  <circle cx="20" cy="16" r="2.5" fill="#29B6F6"/>
  <circle cx="28" cy="16" r="2.5" fill="#29B6F6"/>
  <circle cx="20" cy="16" r="1.2" fill="#01579B"/>
  <circle cx="28" cy="16" r="1.2" fill="#01579B"/>
  <path d="M20,22 Q24,26 28,22" stroke="#0288D1" stroke-width="1.5" fill="none"/>
  <circle cx="24" cy="6" r="3" fill="#E3F2FD"/>
  <path d="M24,3 L24,9 M21,6 L27,6" stroke="#29B6F6" stroke-width="1"/>
</svg>
