<svg xmlns="http://www.w3.org/2000/svg" viewBox="0 0 48 48" width="48" height="48">
  <path d="M24,8 Q32,20 28,36 Q24,44 20,36 Q16,20 24,8" fill="#B3E5FC" opacity="0.7"/>
  <path d="M24,12 Q30,22 26,34 Q24,40 22,34 Q18,22 24,12" fill="#E1F5FE" opacity="0.8"/>
  <circle cx="24" cy="18" r="8" fill="#E3F2FD"/>
  <circle cx="20" cy="16" r="3" fill="#29B6F6"/>
  <circle cx="28" cy="16" r="3" fill="#29B6F6"/>
  <circle cx="20" cy="16" r="1.5" fill="#01579B"/>
  <circle cx="28" cy="16" r="1.5" fill="#01579B"/>
  <path d="M20,22 Q24,26 28,22" stroke="#0288D1" stroke-width="1.5" fill="none"/>
  <path d="M14,14 L10,10 M12,12 L8,12 M12,14 L10,16" stroke="#81D4FA" stroke-width="1"/>
  <path d="M34,14 L38,10 M36,12 L40,12 M36,14 L38,16" stroke="#81D4FA" stroke-width="1"/>
</svg>
