<svg xmlns="http://www.w3.org/2000/svg" viewBox="0 0 48 48" width="48" height="48">
  <ellipse cx="24" cy="36" rx="16" ry="10" fill="#B71C1C"/>
  <circle cx="24" cy="20" r="14" fill="#D32F2F"/>
  <polygon points="12,14 8,2 16,12" fill="#FF5722"/>
  <polygon points="32,12 40,2 36,14" fill="#FF5722"/>
  <path d="M24,4 Q28,8 24,12 Q20,8 24,4" fill="#FFEB3B"/>
  <circle cx="18" cy="18" r="4" fill="#FFEB3B"/>
  <circle cx="30" cy="18" r="4" fill="#FFEB3B"/>
  <circle cx="18" cy="18" r="2" fill="#000"/>
  <circle cx="30" cy="18" r="2" fill="#000"/>
  <path d="M18,28 Q24,34 30,28" fill="#BF360C"/>
  <rect x="20" y="26" width="3" height="5" fill="#fff"/>
  <rect x="25" y="26" width="3" height="5" fill="#fff"/>
  <polygon points="4,24 0,20 2,28 -2,32 6,28" fill="#FF5722"/>
  <polygon points="44,24 48,20 46,28 50,32 42,28" fill="#FF5722"/>
</svg>
