<svg xmlns="http://www.w3.org/2000/svg" viewBox="0 0 48 48" width="48" height="48">
  <!-- Bat Swarm: コウモリの群れ -->
  <!-- Main bat -->
  <ellipse cx="24" cy="24" rx="6" ry="4" fill="#37474F"/>
  <path d="M8 20 Q12 14 18 22 L18 26 Q12 18 8 24 Z" fill="#455A64"/>
  <path d="M40 20 Q36 14 30 22 L30 26 Q36 18 40 24 Z" fill="#455A64"/>
  <circle cx="22" cy="22" r="1.5" fill="#F44336"/>
  <circle cx="26" cy="22" r="1.5" fill="#F44336"/>
  <polygon points="21,18 23,14 25,18" fill="#37474F"/>
  <polygon points="23,18 25,14 27,18" fill="#37474F"/>
  <!-- Small bats -->
  <ellipse cx="12" cy="12" rx="3" ry="2" fill="#546E7A"/>
  <path d="M6 10 Q8 8 9 12" stroke="#546E7A" stroke-width="2" fill="none"/>
  <path d="M18 10 Q16 8 15 12" stroke="#546E7A" stroke-width="2" fill="none"/>
  <ellipse cx="36" cy="14" rx="3" ry="2" fill="#546E7A"/>
  <path d="M30 12 Q32 10 33 14" stroke="#546E7A" stroke-width="2" fill="none"/>
  <path d="M42 12 Q40 10 39 14" stroke="#546E7A" stroke-width="2" fill="none"/>
  <ellipse cx="20" cy="38" rx="3" ry="2" fill="#546E7A"/>
  <ellipse cx="32" cy="36" rx="3" ry="2" fill="#546E7A"/>
</svg>