<svg xmlns="http://www.w3.org/2000/svg" viewBox="0 0 48 48" width="48" height="48">
  <!-- Cave Troll: 洞窟トロール -->
  <ellipse cx="24" cy="38" rx="14" ry="10" fill="#6D4C41"/>
  <circle cx="24" cy="20" r="14" fill="#8D6E63"/>
  <circle cx="18" cy="18" r="4" fill="#FFEB3B"/>
  <circle cx="30" cy="18" r="4" fill="#FFEB3B"/>
  <circle cx="18" cy="18" r="2" fill="#333"/>
  <circle cx="30" cy="18" r="2" fill="#333"/>
  <ellipse cx="24" cy="26" rx="6" ry="4" fill="#5D4037"/>
  <ellipse cx="24" cy="27" rx="3" ry="2" fill="#333"/>
  <rect x="18" y="28" width="3" height="5" fill="#fff"/>
  <rect x="27" y="28" width="3" height="5" fill="#fff"/>
  <!-- Arms -->
  <ellipse cx="6" cy="30" rx="6" ry="8" fill="#8D6E63"/>
  <ellipse cx="42" cy="30" rx="6" ry="8" fill="#8D6E63"/>
  <ellipse cx="4" cy="38" rx="4" ry="5" fill="#6D4C41"/>
  <ellipse cx="44" cy="38" rx="4" ry="5" fill="#6D4C41"/>
  <!-- Warts -->
  <circle cx="14" cy="14" r="2" fill="#5D4037"/>
  <circle cx="32" cy="12" r="2" fill="#5D4037"/>
  <circle cx="20" cy="8" r="1.5" fill="#5D4037"/>
</svg>