<svg xmlns="http://www.w3.org/2000/svg" viewBox="0 0 48 48" width="48" height="48">
  <!-- Dark Dragon: 闇のドラゴン -->
  <ellipse cx="24" cy="36" rx="16" ry="10" fill="#37474F"/>
  <circle cx="30" cy="22" r="12" fill="#455A64"/>
  <!-- Wings -->
  <path d="M4 14 L8 8 L12 12 L16 6 L20 14 Q14 20 4 18 Z" fill="#263238"/>
  <path d="M44 14 L40 8 L36 12 L32 6 L28 14 Q34 20 44 18 Z" fill="#263238"/>
  <!-- Head -->
  <ellipse cx="38" cy="18" rx="8" ry="6" fill="#455A64"/>
  <circle cx="40" cy="16" r="3" fill="#F44336"/>
  <circle cx="40" cy="16" r="1.5" fill="#FFEB3B"/>
  <polygon points="44,20 48,18 46,22" fill="#37474F"/>
  <!-- Horns -->
  <polygon points="34,10 36,4 38,10" fill="#263238"/>
  <polygon points="40,8 44,2 42,10" fill="#263238"/>
  <!-- Tail -->
  <path d="M8 38 Q4 36 2 40 L6 42 Q8 38 12 40" fill="#37474F"/>
  <!-- Flame breath hint -->
  <circle cx="46" cy="20" r="2" fill="#FF5722" opacity="0.8"/>
  <circle cx="44" cy="22" r="1.5" fill="#FF9800" opacity="0.6"/>
</svg>