<svg xmlns="http://www.w3.org/2000/svg" viewBox="0 0 48 48" width="48" height="48">
  <!-- Fire Elemental: 炎の精霊 -->
  <!-- Base flames -->
  <path d="M24 46 Q16 40 18 32 Q14 36 12 28 Q8 32 10 24 Q6 20 14 16 Q10 12 18 10 Q16 4 24 2 Q32 4 30 10 Q38 12 34 16 Q42 20 38 24 Q40 32 36 28 Q34 36 30 32 Q32 40 24 46 Z" fill="#FF5722"/>
  <path d="M24 44 Q18 38 20 32 Q16 34 18 26 Q14 28 18 22 Q14 18 20 16 Q18 12 24 8 Q30 12 28 16 Q34 18 30 22 Q34 28 30 26 Q32 34 28 32 Q30 38 24 44 Z" fill="#FF9800"/>
  <path d="M24 40 Q20 36 22 30 Q18 32 20 26 Q16 26 20 22 Q18 18 24 14 Q30 18 28 22 Q32 26 28 26 Q30 32 26 30 Q28 36 24 40 Z" fill="#FFC107"/>
  <path d="M24 34 Q22 32 23 28 Q20 30 22 26 Q20 24 24 20 Q28 24 26 26 Q28 30 25 28 Q26 32 24 34 Z" fill="#FFEB3B"/>
  <!-- Eyes -->
  <circle cx="20" cy="22" r="3" fill="#fff"/>
  <circle cx="28" cy="22" r="3" fill="#fff"/>
  <circle cx="20" cy="22" r="1.5" fill="#D32F2F"/>
  <circle cx="28" cy="22" r="1.5" fill="#D32F2F"/>
</svg>