<svg xmlns="http://www.w3.org/2000/svg" viewBox="0 0 48 48" width="48" height="48">
  <!-- Ice Wraith: 氷のレイス -->
  <!-- Ghostly body -->
  <path d="M24 46 Q16 44 14 36 Q10 40 12 32 Q8 34 10 26 Q6 28 12 20 Q10 16 16 14 Q14 10 24 8 Q34 10 32 14 Q38 16 36 20 Q42 28 38 26 Q40 34 36 32 Q38 40 34 36 Q32 44 24 46 Z" fill="#B3E5FC" opacity="0.7"/>
  <path d="M24 42 Q18 40 16 34 Q14 36 16 30 Q12 32 16 24 Q14 20 18 18 Q16 14 24 12 Q32 14 30 18 Q34 20 32 24 Q36 32 32 30 Q34 36 32 34 Q30 40 24 42 Z" fill="#E1F5FE" opacity="0.8"/>
  <!-- Face -->
  <circle cx="20" cy="22" r="4" fill="#4FC3F7"/>
  <circle cx="28" cy="22" r="4" fill="#4FC3F7"/>
  <circle cx="20" cy="22" r="2" fill="#fff"/>
  <circle cx="28" cy="22" r="2" fill="#fff"/>
  <!-- Mouth -->
  <ellipse cx="24" cy="30" rx="4" ry="3" fill="#0097A7" opacity="0.6"/>
  <!-- Ice crystals around -->
  <polygon points="8,18 10,14 12,18 10,16" fill="#E1F5FE"/>
  <polygon points="36,16 38,12 40,16 38,14" fill="#E1F5FE"/>
  <polygon points="6,32 8,28 10,32 8,30" fill="#E1F5FE"/>
  <polygon points="38,30 40,26 42,30 40,28" fill="#E1F5FE"/>
  <!-- Floating ice shards -->
  <polygon points="14,8 16,4 18,8" fill="#81D4FA" opacity="0.6"/>
  <polygon points="30,6 32,2 34,6" fill="#81D4FA" opacity="0.6"/>
</svg>