<svg xmlns="http://www.w3.org/2000/svg" viewBox="0 0 48 48" width="48" height="48">
  <!-- Kraken: 巨大タコ -->
  <!-- Tentacles -->
  <path d="M4 44 Q2 38 6 34 Q4 30 8 28" stroke="#7B1FA2" stroke-width="4" fill="none" stroke-linecap="round"/>
  <path d="M12 46 Q10 40 14 36 Q12 32 16 30" stroke="#7B1FA2" stroke-width="4" fill="none" stroke-linecap="round"/>
  <path d="M36 46 Q38 40 34 36 Q36 32 32 30" stroke="#7B1FA2" stroke-width="4" fill="none" stroke-linecap="round"/>
  <path d="M44 44 Q46 38 42 34 Q44 30 40 28" stroke="#7B1FA2" stroke-width="4" fill="none" stroke-linecap="round"/>
  <!-- Body -->
  <ellipse cx="24" cy="20" rx="16" ry="14" fill="#9C27B0"/>
  <ellipse cx="24" cy="18" rx="12" ry="10" fill="#AB47BC"/>
  <!-- Eyes -->
  <circle cx="18" cy="16" r="5" fill="#FFEB3B"/>
  <circle cx="30" cy="16" r="5" fill="#FFEB3B"/>
  <circle cx="18" cy="16" r="3" fill="#F44336"/>
  <circle cx="30" cy="16" r="3" fill="#F44336"/>
  <circle cx="19" cy="15" r="1" fill="#333"/>
  <circle cx="31" cy="15" r="1" fill="#333"/>
  <!-- Beak -->
  <polygon points="24,24 20,28 24,32 28,28" fill="#4A148C"/>
  <!-- Suction cups hint -->
  <circle cx="6" cy="36" r="1.5" fill="#E1BEE7"/>
  <circle cx="10" cy="40" r="1.5" fill="#E1BEE7"/>
  <circle cx="42" cy="36" r="1.5" fill="#E1BEE7"/>
  <circle cx="38" cy="40" r="1.5" fill="#E1BEE7"/>
</svg>