<svg xmlns="http://www.w3.org/2000/svg" viewBox="0 0 48 48" width="48" height="48">
  <!-- Merman: 半魚人 -->
  <path d="M24 48 Q20 44 18 40 L16 46 Q14 42 12 44 L14 36 Q18 38 24 36 Q30 38 34 36 L36 44 Q34 42 32 46 L30 40 Q28 44 24 48 Z" fill="#26A69A"/>
  <ellipse cx="24" cy="30" rx="10" ry="8" fill="#4DB6AC"/>
  <circle cx="24" cy="16" r="10" fill="#80CBC4"/>
  <circle cx="20" cy="14" r="2.5" fill="#004D40"/>
  <circle cx="28" cy="14" r="2.5" fill="#004D40"/>
  <path d="M20 20 Q24 24 28 20" stroke="#004D40" stroke-width="1.5" fill="none"/>
  <!-- Gills -->
  <line x1="10" y1="24" x2="14" y2="22" stroke="#00897B" stroke-width="1"/>
  <line x1="10" y1="26" x2="14" y2="24" stroke="#00897B" stroke-width="1"/>
  <line x1="10" y1="28" x2="14" y2="26" stroke="#00897B" stroke-width="1"/>
  <line x1="38" y1="24" x2="34" y2="22" stroke="#00897B" stroke-width="1"/>
  <line x1="38" y1="26" x2="34" y2="24" stroke="#00897B" stroke-width="1"/>
  <line x1="38" y1="28" x2="34" y2="26" stroke="#00897B" stroke-width="1"/>
  <!-- Fin on head -->
  <path d="M20 6 Q24 2 28 6" fill="#26A69A"/>
  <!-- Trident -->
  <line x1="40" y1="8" x2="40" y2="36" stroke="#FFD54F" stroke-width="2"/>
  <polygon points="36,8 40,4 44,8 42,10 40,8 38,10" fill="#FFD54F"/>
</svg>