<svg xmlns="http://www.w3.org/2000/svg" viewBox="0 0 48 48" width="48" height="48">
  <!-- Sea Serpent: 海蛇 -->
  <path d="M4 30 Q8 24 14 28 Q20 32 26 26 Q32 20 38 24 Q44 28 46 22" stroke="#0097A7" stroke-width="8" fill="none" stroke-linecap="round"/>
  <path d="M4 30 Q8 24 14 28 Q20 32 26 26 Q32 20 38 24 Q44 28 46 22" stroke="#00BCD4" stroke-width="5" fill="none" stroke-linecap="round"/>
  <!-- Head -->
  <circle cx="46" cy="20" r="6" fill="#00ACC1"/>
  <circle cx="48" cy="18" r="2" fill="#FFEB3B"/>
  <circle cx="48" cy="18" r="1" fill="#333"/>
  <polygon points="48,24 52,22 52,26" fill="#00838F"/>
  <!-- Fins -->
  <polygon points="14,24 18,18 22,24" fill="#0097A7"/>
  <polygon points="32,18 36,12 40,18" fill="#0097A7"/>
  <!-- Tail -->
  <path d="M4 30 Q2 34 6 36 Q2 32 4 30" fill="#00BCD4"/>
  <polygon points="2,32 0,28 4,30 0,36 4,34" fill="#0097A7"/>
  <!-- Scales hint -->
  <circle cx="20" cy="28" r="1.5" fill="#00838F" opacity="0.5"/>
  <circle cx="28" cy="24" r="1.5" fill="#00838F" opacity="0.5"/>
  <circle cx="36" cy="22" r="1.5" fill="#00838F" opacity="0.5"/>
</svg>