<svg xmlns="http://www.w3.org/2000/svg" viewBox="0 0 48 48" width="48" height="48">
  <!-- Stone Golem: 岩のゴーレム -->
  <rect x="14" y="28" width="20" height="18" fill="#78909C" rx="3"/>
  <circle cx="24" cy="18" r="14" fill="#607D8B"/>
  <rect x="8" y="14" width="8" height="4" fill="#78909C" rx="2"/>
  <rect x="32" y="14" width="8" height="4" fill="#78909C" rx="2"/>
  <rect x="4" y="16" width="6" height="10" fill="#607D8B" rx="2"/>
  <rect x="38" y="16" width="6" height="10" fill="#607D8B" rx="2"/>
  <circle cx="19" cy="16" r="4" fill="#FFEB3B"/>
  <circle cx="29" cy="16" r="4" fill="#FFEB3B"/>
  <circle cx="19" cy="16" r="2" fill="#FF5722"/>
  <circle cx="29" cy="16" r="2" fill="#FF5722"/>
  <rect x="20" y="24" width="8" height="4" fill="#455A64" rx="1"/>
  <!-- Cracks -->
  <path d="M18 8 L20 12 L18 16" stroke="#455A64" stroke-width="1" fill="none"/>
  <path d="M30 10 L28 14 L30 18" stroke="#455A64" stroke-width="1" fill="none"/>
  <rect x="16" y="40" width="6" height="6" fill="#546E7A" rx="1"/>
  <rect x="26" y="40" width="6" height="6" fill="#546E7A" rx="1"/>
</svg>